<svg xmlns="http://www.w3.org/2000/svg" width="169.672" height="58.874" viewBox="222.251 367.689 169.672 58.874"><path fill="#010101" stroke="#FFF" stroke-width="1.176" stroke-miterlimit="10" d="M391.335 417.674c0 5.119-3.761 8.301-8.875 8.301H232.105c-5.116 0-9.266-4.151-9.266-9.271v-39.159c0-5.118 4.149-9.268 9.266-9.268H382.46c5.114 0 8.875 4.15 8.875 9.268v40.129z"/><path fill="#010101" stroke="#FFF" stroke-width="1.176" stroke-miterlimit="10" d="M391.335 417.674c0 5.119-3.761 8.301-8.875 8.301H232.105c-5.116 0-9.266-4.151-9.266-9.271v-39.159c0-5.118 4.149-9.268 9.266-9.268H382.46c5.114 0 8.875 4.15 8.875 9.268v40.129z"/><g fill="#FFF"><path d="M337.988 409.692l-1.267 1.193c-.291.159-.582.348-.873.479-.878.399-1.771.499-2.564.499-.847 0-2.17-.055-3.521-1.032-1.879-1.322-2.698-3.594-2.698-5.576 0-4.102 3.34-6.112 6.062-6.112.952 0 1.929.239 2.724.741 1.322.873 1.664 2.01 1.854 2.618l-6.219 2.513-2.038.158c.66 3.361 2.936 5.316 5.449 5.316 1.256 0 2.188-.408 3.043-.831-.001.001.171-.088.048.034zm-3.752-6.688c.505-.184.768-.343.768-.711 0-1.057-1.195-2.275-2.621-2.275-1.057 0-3.041.822-3.041 3.681 0 .444.053.92.08 1.396l4.814-2.091z"/><path d="M324.986 409.486c0 1.028.184 1.188 1.053 1.27.453.053.905.076 1.354.131l-.979.581h-4.66c.611-.792.715-.871.715-1.398v-.593l-.01-15.726H320.4l1.98-.955h3.782c-.819.475-1.065.763-1.171 1.688l-.005 15.002z"/><path d="M317.758 400.441c.606.5 1.874 1.559 1.874 3.568 0 1.958-1.104 2.882-2.218 3.757-.342.344-.741.718-.741 1.296 0 .584.399.9.688 1.139l.957.736c1.159.98 2.22 1.881 2.22 3.706 0 2.488-2.407 4.996-6.958 4.996-3.834 0-5.687-1.823-5.687-3.78 0-.954.474-2.303 2.038-3.228 1.641-1.002 3.862-1.137 5.053-1.214-.372-.48-.796-.983-.796-1.802 0-.449.136-.717.265-1.032-.289.028-.58.058-.846.058-2.806 0-4.394-2.096-4.394-4.155 0-1.218.557-2.566 1.695-3.545 1.508-1.242 3.307-1.457 4.733-1.457h5.451l-1.692.957h-1.642zm-1.875 11.744c-.217-.027-.348-.027-.608-.027-.239 0-1.668.053-2.775.424-.584.215-2.277.846-2.277 2.725 0 1.875 1.827 3.229 4.653 3.229 2.54 0 3.889-1.218 3.889-2.856-.002-1.352-.874-2.065-2.882-3.495zm.76-5.027c.613-.611.665-1.453.665-1.933 0-1.901-1.134-4.865-3.333-4.865-.686 0-1.429.344-1.852.876-.445.552-.579 1.267-.579 1.953 0 1.771 1.032 4.71 3.304 4.71.664 0 1.377-.323 1.795-.741zM301.358 411.811c-4.205 0-6.454-3.274-6.454-6.238 0-3.464 2.828-6.429 6.85-6.429 3.888 0 6.324 3.044 6.324 6.241 0 3.121-2.407 6.426-6.72 6.426zm3.308-2.141c.64-.846.794-1.902.794-2.933 0-2.329-1.11-6.772-4.391-6.772-.872 0-1.75.341-2.383.898-1.035.925-1.218 2.087-1.218 3.229 0 2.613 1.292 6.924 4.499 6.924 1.034 0 2.089-.5 2.699-1.346zM287.28 411.811c-4.206 0-6.451-3.274-6.451-6.238 0-3.464 2.83-6.429 6.85-6.429 3.887 0 6.319 3.044 6.319 6.241 0 3.121-2.403 6.426-6.718 6.426zm3.309-2.141c.634-.846.793-1.902.793-2.933 0-2.329-1.113-6.772-4.391-6.772-.875 0-1.745.341-2.379.898-1.036.925-1.218 2.087-1.218 3.229 0 2.613 1.296 6.924 4.497 6.924 1.034 0 2.088-.5 2.698-1.346zM279.148 410.893l-3.547.812c-1.436.228-2.726.427-4.092.427-6.84 0-9.447-5.035-9.447-8.976 0-4.812 3.693-9.274 10.017-9.274 1.337 0 2.625.196 3.798.515 1.858.523 2.728 1.167 3.271 1.544l-2.061 1.958-.869.192.619-.986c-.838-.819-2.38-2.332-5.306-2.332-3.913 0-6.864 2.973-6.864 7.317 0 4.662 3.371 9.049 8.774 9.049 1.589 0 2.406-.319 3.147-.616v-3.998l-3.744.2 1.985-1.065h5.254l-.644.619c-.173.147-.195.196-.244.396-.026.227-.05.943-.05 1.196v3.022h.003z"/><g><path d="M345.613 409.805v6.738h-1.338v-17.145h1.338v1.951c.871-1.261 2.464-2.261 4.313-2.261 3.317 0 5.554 2.517 5.554 6.5 0 3.958-2.235 6.527-5.554 6.527-1.745.002-3.309-.898-4.313-2.31zm8.43-4.215c0-3.003-1.565-5.293-4.342-5.293-1.724 0-3.371 1.354-4.088 2.535v5.488c.717 1.183 2.364 2.588 4.088 2.588 2.777 0 4.342-2.31 4.342-5.318zM357.307 411.809v-17.144h1.34v17.144h-1.34zM373.659 415.434c.285.128.773.207 1.083.207.817 0 1.389-.336 1.899-1.518l.978-2.211-5.271-12.514h1.492l4.522 10.845 4.478-10.845h1.514l-6.43 15.139c-.666 1.561-1.716 2.311-3.158 2.311a5.324 5.324 0 0 1-1.337-.18l.23-1.234zM369.75 411.771c-.09-.432-.156-.81-.205-1.127a7.507 7.507 0 0 1-.063-.968c-.459.674-1.109 1.234-1.938 1.676-.831.443-1.62.662-2.704.662-1.303 0-2.313-.319-3.037-.971-.72-.65-1.082-1.531-1.082-2.645s.525-2.017 1.57-2.705c1.046-.695 2.397-1.038 4.07-1.038h3.121v-1.544c0-.89-.304-1.586-.908-2.094-.606-.507-1.458-.762-2.562-.762-1.01 0-1.828.233-2.45.689-.617.466-.929 1.042-.929 1.737h-1.37l-.026-.066c-.05-.938.378-1.76 1.291-2.469.905-.711 2.097-1.066 3.561-1.066 1.456 0 2.638.352 3.528 1.051.889.693 1.334 1.697 1.334 3.008v6.122c0 .439.021.864.076 1.278.058.415.146.828.268 1.229l-1.545.003zm-4.748-.974c1.137 0 1.953-.254 2.789-.757.828-.499 1.394-1.149 1.689-1.938v-2.384h-3.136c-1.198 0-2.188.266-2.97.8-.781.533-1.179 1.179-1.179 1.93 0 .708.252 1.272.75 1.701.502.433 1.186.648 2.057.648z"/></g></g><g fill="#FFF"><path d="M262.118 380.601c0-2.634 1.958-4.329 4.392-4.329 1.631 0 2.698.778 3.362 1.731l-1.191.69a2.706 2.706 0 0 0-2.171-1.116c-1.656 0-2.886 1.255-2.886 3.023 0 1.745 1.23 3.024 2.886 3.024.853 0 1.605-.389 1.982-.751v-1.294h-2.509v-1.292h3.964v3.125a4.521 4.521 0 0 1-3.438 1.531c-2.433 0-4.391-1.719-4.391-4.342zM271.764 384.78v-8.37h5.734v1.292h-4.266v2.158h4.178v1.292h-4.178v2.334h4.266v1.293l-5.734.001zM281.56 384.78v-7.077h-2.534v-1.292h6.536v1.292h-2.534v7.077h-1.468zM290.664 384.78v-8.37h1.468v8.37h-1.468zM296.219 384.78v-7.077h-2.534v-1.292h6.536v1.292h-2.534v7.077h-1.468zM304.96 380.601c0-2.497 1.769-4.329 4.279-4.329 2.496 0 4.277 1.832 4.277 4.329s-1.781 4.329-4.277 4.329c-2.51 0-4.279-1.832-4.279-4.329zm7.052 0c0-1.73-1.092-3.023-2.771-3.023-1.694 0-2.773 1.292-2.773 3.023 0 1.72 1.079 3.024 2.773 3.024 1.679 0 2.771-1.304 2.771-3.024zM321.065 384.78l-4.366-5.985v5.985h-1.467v-8.37h1.506l4.276 5.796v-5.796h1.47v8.37h-1.419z"/></g><path fill="none" d="M244.59 404.892l4.293-4.292h-.001l-4.292 4.292-13.699-13.7h-.001l13.7 13.702-13.722 13.721 13.722-13.721 4.312 4.311h.002z"/><linearGradient id="a" gradientUnits="userSpaceOnUse" x1="727.492" y1="886.949" x2="709.404" y2="898.269" gradientTransform="scale(1 -1) rotate(-45 -1073.465 827.974)"><stop offset="0" stop-color="#d7e69d"/><stop offset=".446" stop-color="#94c4aa"/><stop offset="1" stop-color="#01a4b6"/></linearGradient><path fill="url(#a)" d="M248.882 400.6l-16.726-9.197c-.473-.259-.912-.319-1.265-.21l13.7 13.699 4.291-4.292z"/><linearGradient id="b" gradientUnits="userSpaceOnUse" x1="716.977" y1="896.621" x2="740.428" y2="890.491" gradientTransform="scale(1 -1) rotate(-45 -1073.465 827.974)"><stop offset="0" stop-color="#ed277b"/><stop offset=".019" stop-color="#ee2f7c"/><stop offset=".704" stop-color="#f7bd81"/><stop offset="1" stop-color="#feeb74"/></linearGradient><path fill="url(#b)" d="M248.904 409.205l5.709-3.141c1.158-.64 1.158-1.679 0-2.314l-5.73-3.15-4.292 4.292 4.313 4.313z"/><linearGradient id="c" gradientUnits="userSpaceOnUse" x1="730.067" y1="878.363" x2="704.636" y2="893.325" gradientTransform="scale(1 -1) rotate(-45 -1073.465 827.974)"><stop offset="0" stop-color="#89cfbd"/><stop offset=".091" stop-color="#7dbebb"/><stop offset=".54" stop-color="#457cac"/><stop offset=".852" stop-color="#1c5aa2"/><stop offset="1" stop-color="#084d9f"/></linearGradient><path fill="url(#c)" d="M230.89 391.192c-.508.159-.838.675-.838 1.454l.003 24.522c0 .77.32 1.277.813 1.446l13.723-13.723-13.701-13.699z"/><linearGradient id="d" gradientUnits="userSpaceOnUse" x1="739.302" y1="890.243" x2="723.642" y2="869.612" gradientTransform="scale(1 -1) rotate(-45 -1073.465 827.974)"><stop offset="0" stop-color="#f04a2b"/><stop offset=".47" stop-color="#b54f6b"/><stop offset=".835" stop-color="#8b5191"/><stop offset="1" stop-color="#7851a1"/></linearGradient><path fill="url(#d)" d="M230.868 418.615c.357.121.804.063 1.288-.201l16.747-9.209-4.312-4.312-13.723 13.722z"/></svg>