<svg width="41" height="40" viewBox="0 0 41 40" xmlns="http://www.w3.org/2000/svg"><title>ava-group</title><g fill="none" fill-rule="evenodd"><path d="M.5 0h40v40H.5V0z" fill="#D2D2D1"/><path d="M17.654 23.437a10.948 10.948 0 0 1-2.435-6.86c0-.807.094-1.592.261-2.349a7.98 7.98 0 0 0-7.152 14.017C4.788 30.21 1.947 34.302.5 39.477V40h8.753c.978-7.032 4.02-13.064 8.401-16.563" fill="#FFF"/><path d="M40.5 37.625c-1.472-6.42-4.819-11.545-9.075-13.908a8.898 8.898 0 1 0-10.618 0c-4.769 2.648-8.398 8.762-9.523 16.283H40.5v-2.375" fill="#FFF"/></g></svg>