<svg width="19" height="19" viewBox="0 0 19 19" xmlns="http://www.w3.org/2000/svg"><title>icon-audio-ended</title><g fill="#DBDBDB" fill-rule="evenodd"><path d="M8.041 10.959c-1.88-1.88-3.677-4.057-2.817-4.918 1.232-1.232 2.306-1.992.122-4.709-2.184-2.716-3.639-.63-4.833.564C-.864 3.274.441 8.408 5.515 13.484c5.076 5.075 10.211 6.38 11.589 5.002 1.195-1.194 3.28-2.649.563-4.832-2.716-2.183-3.475-1.111-4.708.122-.861.86-3.037-.937-4.918-2.817M16.881 7.571l-2.277-2.277-2.278 2.277-1.007-1.007 2.277-2.278-2.278-2.278 1.008-1.007 2.278 2.277L16.882 1l1.007 1.009-2.277 2.277 2.278 2.278-1.009 1.007"/></g></svg>