<svg width="22" height="28" viewBox="0 0 22 28" xmlns="http://www.w3.org/2000/svg"><title>icon-ios</title><path d="M15.029 4.475c1.761-2.197 1.395-4.477 1.395-4.477s-2.465.012-4.238 2.437c-1.577 2.156-1.175 4.001-1.175 4.001s2.137.384 4.018-1.961zm3.335 10.363c0-3.757 2.918-5.305 2.918-5.305s-1.492-2.801-5.285-2.801c-2.204 0-3.897 1.301-4.809 1.301-1.062 0-2.648-1.223-4.692-1.223C3.352 6.81 0 9.731 0 15.3 0 20.959 3.96 28 7.095 28c1.093 0 2.774-1.143 4.466-1.143 1.661 0 2.887 1.102 4.464 1.102 3.433 0 5.974-7.423 5.974-7.423s-3.635-1.46-3.635-5.698z" fill="#DDD" fill-rule="evenodd"/></svg>