<svg width="26" height="30" viewBox="0 0 26 30" xmlns="http://www.w3.org/2000/svg"><title>icon-android</title><path d="M17.432 2.195L18.829.229l-.093-.176-.198-.029-1.441 2.027c-.974-.38-2.158-.616-3.6-.621-1.45-.004-2.639.225-3.616.6L8.455.024l-.197.029-.093.176 1.379 1.942c-4.022 1.772-4.14 6.121-4.14 6.121H21.59s-.165-4.311-4.158-6.097zM9.944 5.748a.973.973 0 0 1-.974-.971c0-.537.437-.971.974-.971.538 0 .975.434.975.971a.973.973 0 0 1-.975.971zm7.106 0a.972.972 0 0 1 0-1.942.972.972 0 1 1 0 1.942zM5.336 15.947h.015v7.025c0 .537.437.972.976.972h2.084v4.323c0 .955.778 1.73 1.737 1.73.958 0 1.735-.775 1.735-1.73v-4.323h3.228v4.323c0 .955.776 1.73 1.736 1.73.958 0 1.736-.775 1.736-1.73v-4.323h2.084a.974.974 0 0 0 .976-.972v-7.025h.015V9.25H5.336v6.697zm18.928-7.251c-.959 0-1.736.775-1.736 1.731v7.776c0 .955.777 1.731 1.736 1.731.958 0 1.736-.776 1.736-1.731v-7.776c0-.956-.778-1.731-1.736-1.731zm-21.534 0c-.958 0-1.736.775-1.736 1.731v7.776c0 .955.778 1.731 1.736 1.731.959 0 1.736-.776 1.736-1.731v-7.776c0-.956-.777-1.731-1.736-1.731z" fill="#CCC" fill-rule="evenodd"/></svg>