<svg width="32" height="33" viewBox="0 0 32 33" xmlns="http://www.w3.org/2000/svg"><title>icon-smile_active</title><path d="M16.376.917C7.747.917.751 7.913.751 16.542c0 8.628 6.996 15.624 15.625 15.624S32 25.17 32 16.542C32 7.913 25.005.917 16.376.917zm6.343 7.681a2.122 2.122 0 1 1 0 4.244 2.122 2.122 0 0 1 0-4.244zm-12.907 0a2.122 2.122 0 1 1 0 4.244 2.122 2.122 0 0 1 0-4.244zm6.564 17.967c-4.865 0-8.994-3.105-10.543-7.438 2.526 2.446 6.309 4.004 10.543 4.004 4.233 0 8.016-1.558 10.542-4.004-1.549 4.333-5.677 7.438-10.542 7.438z" fill="#0D70B3" fill-rule="evenodd"/></svg>