<svg width="32" height="33" viewBox="0 0 32 33" xmlns="http://www.w3.org/2000/svg"><title>icon-smile</title><path d="M16 .917C7.371.917.376 7.913.376 16.542.376 25.17 7.371 32.166 16 32.166c8.629 0 15.624-6.996 15.624-15.624C31.624 7.913 24.629.917 16 .917zm6.343 7.681a2.122 2.122 0 1 1 0 4.244 2.122 2.122 0 0 1 0-4.244zm-12.906 0a2.122 2.122 0 1 1-.001 4.243 2.122 2.122 0 0 1 .001-4.243zM16 26.565c-4.865 0-8.994-3.105-10.542-7.438 2.526 2.446 6.308 4.004 10.542 4.004s8.016-1.558 10.542-4.004C24.994 23.46 20.865 26.565 16 26.565z" fill="#BEBEBE" fill-rule="evenodd"/></svg>