<svg xmlns="http://www.w3.org/2000/svg" width="18" height="26" viewBox="0 0 18 26"><title>icon-mic-off</title><path fill="#FFF" d="M18 11.673h-2.593c0 4.028-2.788 7.256-6.467 7.256a6.18 6.18 0 0 1-2.331-.473l-1.752 1.761a8.97 8.97 0 0 0 2.749.882v4.408h2.667v-4.408c4.371-.647 7.727-4.67 7.727-9.426m-2.001-8.988L.27 18.53l1.596 1.607 4.765-4.779a3.92 3.92 0 0 0 2.309.752c2.204 0 3.986-1.804 3.986-4.028V9.017l4.679-4.711-1.606-1.621M8.94 0C6.73 0 5.032 1.666 5.032 3.891v6.917l7.782-7.781C12.316 1.367 10.744 0 8.94 0" opacity=".5"/></svg>