<svg width="25" height="14" viewBox="0 0 25 14" xmlns="http://www.w3.org/2000/svg"><title>icon-video-ended</title><g fill="#DBDBDB" fill-rule="evenodd"><path d="M25 12.542l-7-2.983V5.177l7-2.981v10.346M13.807 0H3.193A3.194 3.194 0 0 0 0 3.193v7.614A3.194 3.194 0 0 0 3.193 14h10.614A3.194 3.194 0 0 0 17 10.807V3.193A3.194 3.194 0 0 0 13.807 0zm-2.122 11.5l-2.97-2.971-2.971 2.972-1.314-1.315L7.4 7.215 4.429 4.244 5.744 2.93 8.715 5.9l2.971-2.971L13 4.245l-2.971 2.97L13 10.186 11.685 11.5z"/></g></svg>