<svg width="14" height="34" viewBox="0 0 14 34" xmlns="http://www.w3.org/2000/svg"><title>icon-attach</title><path d="M2.56.704C4.092-.227 6.068-.235 7.594.682c1.553.934 2.44 2.678 2.432 4.786l-.077 19.893c-.005 1.136-.3 2.114-.854 2.83-.549.708-1.33 1.115-2.146 1.119-1.479.006-2.971-1.333-2.961-3.905l.054-13.973c.002-.574.448-1.041.997-1.044.549-.002.992.461.99 1.035l-.054 13.973c-.005 1.208.491 1.837.982 1.836.216-.001.428-.122.598-.342.26-.335.404-.876.407-1.521l.077-19.893c.005-1.364-.508-2.426-1.446-2.99a2.978 2.978 0 0 0-3.047.013c-.942.571-1.463 1.638-1.469 3.003l-.08 20.802c-.015 3.875 2.554 5.63 4.946 5.62 2.392-.01 4.974-1.786 4.99-5.662l.08-20.802c.002-.574.449-1.041.997-1.043.549-.003.992.461.99 1.034l-.08 20.802c-.01 2.452-.837 4.343-2.079 5.642a6.835 6.835 0 0 1-4.906 2.107C3.479 34.017-.01 31.38.01 26.312L.09 5.51C.099 3.403.999 1.65 2.56.704" fill="#BEBEBE" fill-rule="evenodd"/></svg>