<svg width="27" height="32" viewBox="0 0 27 32" xmlns="http://www.w3.org/2000/svg"><title>icon-invite</title><g fill="none" fill-rule="evenodd"><path d="M21.375 19.494a9.275 9.275 0 0 1-2.593-.368 15.047 15.047 0 0 1-5.146.893c-1.924 0-3.8-.35-5.485-1.018a9.148 9.148 0 0 1-2.991.493 9.441 9.441 0 0 1-2.041-.224l2.946 10.605c4.915 1.988 9.972 1.941 15.163 0l3.007-10.823a9.28 9.28 0 0 1-2.86.442" fill="#FFF"/><path d="M16.987 2.582a2.581 2.581 0 1 1-5.162 0 2.581 2.581 0 0 1 5.162 0" fill="#FFABAA"/><path d="M23.142 10.097c-.376-2.216-2.246-4.1-4.866-5.138a4.546 4.546 0 0 1-3.871 2.172 4.551 4.551 0 0 1-4.106-2.604c-3.227.856-5.629 2.916-6.135 5.414C1.791 10.272 0 11.759 0 13.546c0 2.029 2.31 3.674 5.16 3.674 1.126 0 2.165-.26 3.014-.696 1.55.768 3.43 1.221 5.462 1.221 1.873 0 3.615-.388 5.091-1.05a6.763 6.763 0 0 0 2.648.525c2.85 0 5.16-1.645 5.16-3.674 0-1.587-1.415-2.935-3.393-3.449" fill="#FFABAA"/></g></svg>