<svg width="590" height="56" viewBox="0 0 590 56" xmlns="http://www.w3.org/2000/svg"><title>logo-qmunicate-text</title><g fill="#999" fill-rule="evenodd"><path d="M44.573 48.894c-4.46 3.78-10.282 6.048-17.087 6.048-16.028 0-26.538-12.777-26.538-27.37C.948 13.131 11.609.202 27.637.202c16.029 0 26.539 12.778 26.539 27.37 0 7.032-2.495 13.685-6.956 18.675l7.56 6.351-2.797 3.025-7.41-6.729zM41.7 46.398l-10.282-8.77 2.797-3.1 10.132 9.224c3.629-4.234 5.746-9.904 5.746-16.18 0-13.08-9.527-23.816-22.607-23.816S5.031 14.341 5.031 27.572c0 13.08 9.526 23.816 22.606 23.816 5.52 0 10.359-1.89 14.063-4.99zM77.069 29.462h20.263v4.234H77.069v-4.234zM121.672 1.109h3.705l21.246 31.302 21.245-31.302h3.705v52.926h-3.931V8.065l-20.944 30.47h-.302l-20.943-30.47v45.97h-3.781V1.109M197.166 32.033V1.109h3.931v30.546c0 12.475 6.729 19.658 17.919 19.658 10.736 0 17.617-6.503 17.617-19.28V1.109h3.932v30.47c0 15.197-8.847 23.287-21.7 23.287-12.702 0-21.699-8.014-21.699-22.833M266.112 1.109h3.705l36.518 46.045V1.109h3.78v52.926h-2.948L269.893 7.007v47.028h-3.781V1.109M336.458 1.109h3.932v52.925h-3.932V1.109zM364.035 27.572c0-14.97 11.19-27.37 26.462-27.37 9.451 0 14.896 3.705 20.339 8.695l-2.57 2.647c-4.613-4.461-9.906-7.788-17.844-7.788-12.702 0-22.304 10.358-22.304 23.816 0 13.383 9.753 23.816 22.379 23.816 7.637 0 12.854-2.948 18.222-8.24l2.646 2.57c-5.594 5.519-11.643 9.224-21.018 9.224-15.122 0-26.312-12.022-26.312-27.37M452.685.731h3.78l24.648 53.304h-4.309l-6.73-14.819h-31.225l-6.73 14.819h-4.082L452.685.731zm15.726 34.931L454.499 5.041l-13.987 30.621h27.899zM508.258 4.739H489.81v-3.63h40.828v3.63h-18.449v49.296h-3.931V4.739M551.566 1.109h37.653v3.63h-33.721v20.792h30.318v3.629h-30.318v21.245h34.099v3.63h-38.031V1.109"/></g></svg>