<svg width="161" height="83" viewBox="0 0 161 83" xmlns="http://www.w3.org/2000/svg"><title>logo-quickblox</title><g fill="none" fill-rule="evenodd"><path d="M65.969.468h-9.285c-.771 0-1.397.625-1.397 1.395v9.282c0 .773.626 1.397 1.397 1.397h9.285c.768 0 1.394-.624 1.394-1.397V1.863c0-.77-.626-1.395-1.394-1.395M82.644.468h-9.283c-.772 0-1.397.625-1.397 1.395v9.282c0 .773.625 1.397 1.397 1.397h9.283c.77 0 1.395-.624 1.395-1.397V1.863c0-.77-.625-1.395-1.395-1.395M99.319.468h-9.284c-.771 0-1.396.625-1.396 1.395v9.282c0 .773.625 1.397 1.396 1.397h9.284c.771 0 1.395-.624 1.395-1.397V1.863c0-.77-.624-1.395-1.395-1.395M65.969 16.996h-9.285c-.771 0-1.397.625-1.397 1.398v9.283c0 .77.626 1.394 1.397 1.394h9.285c.768 0 1.394-.624 1.394-1.394v-9.283c0-.773-.626-1.398-1.394-1.398M99.319 16.996h-9.284c-.771 0-1.396.625-1.396 1.398v9.283c0 .77.625 1.394 1.396 1.394h9.284c.771 0 1.395-.624 1.395-1.394v-9.283c0-.773-.624-1.398-1.395-1.398M65.969 33.526h-9.285c-.771 0-1.397.624-1.397 1.395v9.283c0 .773.626 1.397 1.397 1.397h9.285c.768 0 1.394-.624 1.394-1.397v-9.283c0-.771-.626-1.395-1.394-1.395M82.644 33.526h-9.283c-.772 0-1.397.624-1.397 1.395v9.283c0 .773.625 1.397 1.397 1.397h9.283c.77 0 1.395-.624 1.395-1.397v-9.283c0-.771-.625-1.395-1.395-1.395" fill="#1B6BAF"/><path d="M104.624 33.527H90.729a2.09 2.09 0 0 0-2.09 2.091V49.51c0 1.157.934 2.09 2.09 2.09h13.895a2.088 2.088 0 0 0 2.089-2.09V35.618a2.09 2.09 0 0 0-2.089-2.091" fill="#06B624"/><path d="M.984 81.81V70.887l3.919.015c1.619 0 3.041.984 3.041 2.724 0 1.21-.878 2.193-2.028 2.466v.03c1.484.242 2.481 1.21 2.481 2.768 0 1.438-.877 2.92-3.252 2.92H.984zm3.36-6.111c1.27 0 2.54-.5 2.54-1.982 0-1.589-1.301-1.907-2.587-1.922H1.968v3.904h2.376zm-2.376 5.203h2.405c1.876.031 2.966-.469 2.966-2.148 0-1.861-1.498-2.148-3.555-2.148H1.968v4.296zM18.129 77.09l-4.026-6.203h1.257l3.344 5.28 3.343-5.28h1.059l-3.995 6.173v4.75h-.982v-4.72M45.438 81.81c-.469 0-1.346-.151-1.937.016-.377.121-.801.211-1.119.211-3.131 0-4.872-2.284-4.872-5.689 0-3.403 1.741-5.688 4.872-5.688 3.132 0 4.872 2.285 4.872 5.688 0 1.771-.621 3.586-1.998 4.631l.031.03c.757-.121 1.574-.076 2.376-.107v.908h-2.225zm-3.056-.68c2.723 0 3.813-2.391 3.813-4.782 0-2.389-1.09-4.78-3.813-4.78s-3.813 2.391-3.813 4.78c0 2.391 1.09 4.782 3.813 4.782zM55.49 70.887v7.066c.075 1.981 1.21 3.177 3.009 3.177 1.801 0 2.936-1.196 3.011-3.177v-7.066h.984v7.08c-.031 2.345-1.348 4.07-3.995 4.07-2.647 0-3.964-1.725-3.993-4.07v-7.08h.984M70.298 70.842h.984v10.969h-.984V70.842zM85.871 73.444c-.18-1.332-1.33-1.876-2.571-1.876-2.799 0-3.647 2.542-3.647 4.78 0 2.24.848 4.782 3.647 4.782 1.21 0 2.42-.606 2.693-1.967h1.059c-.317 1.83-1.998 2.874-3.752 2.874-3.314 0-4.704-2.663-4.704-5.689 0-2.994 1.406-5.688 4.704-5.688 1.785 0 3.48.817 3.631 2.784h-1.06M94.084 81.81V70.887h.969l.015 4.812 4.886-4.812h1.241l-5.038 4.932 5.492 5.991h-1.346l-5.235-5.704-.015 5.704h-.969" fill="#1B6BAF"/><path d="M108.189 70.887h3.904c1.331 0 2.072.136 2.754.802.469.454.771 1.089.771 1.951 0 1.801-1.317 2.27-1.846 2.466.635.182 2.179.636 2.179 2.724a2.925 2.925 0 0 1-1.317 2.481c-.755.499-1.603.499-2.465.499h-3.98V70.887zm1.468 4.614h2.119c.513 0 2.269 0 2.269-1.724 0-1.649-1.376-1.649-2.209-1.649h-2.179v3.373zm0 5.084h2.587c1.195 0 2.148-.636 2.148-1.891 0-1.09-.755-1.891-2.088-1.891h-2.647v3.782zM122.983 70.887h1.497v9.576h5.083v1.347h-6.58V70.887M136.787 72.068c1.133-1.226 2.632-1.468 3.645-1.468 3.027 0 4.932 1.936 4.932 5.643 0 2.905-1.164 5.825-5.052 5.825-3.722 0-4.932-2.648-4.932-5.643 0-1.241.211-3.071 1.407-4.357zm1.149 7.715c.621.772 1.559.999 2.421.999.892 0 1.785-.242 2.42-.999.893-1.089.984-2.814.984-3.556 0-2.48-.817-4.357-3.313-4.357-2.77 0-3.48 2.224-3.48 4.464 0 1.195.213 2.511.968 3.449zM153.088 70.887l2.95 4.206 2.951-4.206h1.83l-3.889 5.235 4.086 5.688h-1.907l-3.252-4.69-3.329 4.69h-1.831l4.237-5.718-3.783-5.205h1.937" fill="#06B624"/></g></svg>