<svg xmlns="http://www.w3.org/2000/svg" width="55" height="55" viewBox="0 0 55 55"><title>logo-qmunicate-transparent</title><path fill="#FFF" d="M17.543 41.203a4.495 4.495 0 0 1-4.49-4.49v-19.82a4.497 4.497 0 0 1 4.49-4.493h19.826a4.495 4.495 0 0 1 4.487 4.493v31.914l-10.503-7.604h-13.81M35.75 0H19.249c-5.472 0-8.208 0-11.154.931a11.577 11.577 0 0 0-6.919 6.92C.245 10.796.245 13.532.245 19.004v16.502c0 5.473 0 8.209.931 11.154a11.577 11.577 0 0 0 6.919 6.92c2.946.931 5.682.931 11.154.931H35.75c5.473 0 8.209 0 11.155-.931a11.58 11.58 0 0 0 6.919-6.92c.931-2.945.931-5.681.931-11.154V19.004c0-5.472 0-8.208-.931-11.153a11.58 11.58 0 0 0-6.919-6.92C43.959 0 41.223 0 35.75 0" opacity=".2"/></svg>