<svg width="129" height="26" viewBox="0 0 129 26" xmlns="http://www.w3.org/2000/svg"><title>logo-quickblox-gray</title><g fill="#C6C6C6" fill-rule="evenodd"><path d="M37.081 8.124V1.91h1.558c1.196-.026 2.539.276 2.539 1.756s-1.343 1.781-2.539 1.756h-.998v2.702h-.56zm.56-3.219H39c.835 0 1.575-.267 1.575-1.239 0-.972-.74-1.24-1.575-1.24h-1.359v2.479zM47.634 8.253c-1.781 0-2.771-1.3-2.771-3.236 0-1.936.99-3.236 2.771-3.236s2.772 1.3 2.772 3.236c0 1.936-.991 3.236-2.772 3.236zm0-.517c1.549 0 2.169-1.359 2.169-2.719 0-1.36-.62-2.719-2.169-2.719s-2.169 1.359-2.169 2.719c0 1.36.62 2.719 2.169 2.719zM56.162 8.124h-.792L53.752 1.91h.594l1.446 5.654h.017l1.816-5.654h.68l1.894 5.654h.016l1.438-5.654h.542L60.56 8.124h-.766L57.96 2.487h-.016l-1.782 5.637M65.976 8.124V1.91h3.691v.516h-3.132v2.229h3.012v.517h-3.012v2.436h3.262v.516h-3.821M74.378 8.124h-.558V1.91h2.03c.543 0 .99.034 1.464.327.429.258.636.706.636 1.3 0 .671-.473 1.153-1.196 1.334v.017c.792.129.964.663 1.041 1.386.113 1.006.077 1.471.327 1.85h-.645c-.147-.413-.181-.852-.215-1.291-.13-1.42-.216-1.67-1.343-1.67h-1.541v2.961zm1.196-3.477c.793 0 1.774-.052 1.774-1.11 0-1.197-1.119-1.111-1.713-1.111h-1.257v2.221h1.196zM82.251 8.124V1.91h3.692v.516h-3.132v2.229h3.012v.517h-3.012v2.436h3.262v.516h-3.822M91.721 1.91c2.04 0 3.202 1.05 3.202 3.107 0 2.057-1.162 3.107-3.202 3.107h-1.678V1.91h1.678zm.138 5.698c1.747 0 2.462-1.025 2.462-2.591 0-1.833-1.077-2.642-2.84-2.591h-.878v5.182h1.256zM37.081 21.416v-6.213l2.23.008c.921 0 1.729.56 1.729 1.549 0 .689-.499 1.248-1.153 1.403v.017c.844.138 1.411.689 1.411 1.575 0 .818-.499 1.661-1.85 1.661h-2.367zm1.912-3.476c.722 0 1.445-.284 1.445-1.128 0-.904-.741-1.084-1.472-1.093h-1.325v2.221h1.352zm-1.352 2.96h1.368c1.067.017 1.688-.267 1.688-1.222 0-1.059-.853-1.222-2.023-1.222h-1.033V20.9zM46.834 18.731l-2.29-3.528h.715l1.902 3.003 1.902-3.003h.602l-2.272 3.511v2.702h-.559v-2.685M62.368 21.416c-.266 0-.765-.086-1.101.009-.215.069-.456.12-.637.12-1.781 0-2.771-1.299-2.771-3.236 0-1.936.99-3.236 2.771-3.236s2.772 1.3 2.772 3.236c0 1.008-.354 2.04-1.137 2.634l.017.017c.431-.069.896-.043 1.352-.06v.516h-1.266zm-1.738-.387c1.549 0 2.169-1.36 2.169-2.72 0-1.359-.62-2.719-2.169-2.719s-2.169 1.36-2.169 2.719c0 1.36.62 2.72 2.169 2.72zM68.086 15.203v4.019c.043 1.127.689 1.807 1.712 1.807 1.025 0 1.67-.68 1.713-1.807v-4.019h.56v4.027c-.018 1.334-.767 2.315-2.273 2.315-1.506 0-2.255-.981-2.271-2.315v-4.027h.559M76.51 15.177h.56v6.239h-.56v-6.239zM85.368 16.657c-.102-.757-.756-1.067-1.462-1.067-1.592 0-2.075 1.446-2.075 2.719 0 1.274.483 2.72 2.075 2.72.688 0 1.377-.344 1.532-1.119h.602c-.18 1.041-1.136 1.635-2.134 1.635-1.885 0-2.676-1.515-2.676-3.236 0-1.703.8-3.236 2.676-3.236 1.015 0 1.979.465 2.065 1.584h-.603M90.04 21.416v-6.213h.551l.009 2.737 2.779-2.737h.706l-2.866 2.805 3.124 3.408h-.766L90.6 18.172l-.009 3.244h-.551M98.064 15.203h2.22c.757 0 1.179.077 1.567.456.266.258.438.619.438 1.11 0 1.024-.749 1.291-1.049 1.403.361.103 1.239.361 1.239 1.549 0 .843-.542 1.273-.749 1.411-.43.284-.912.284-1.403.284h-2.263v-6.213zm.835 2.624h1.205c.292 0 1.291 0 1.291-.981 0-.938-.783-.938-1.257-.938h-1.239v1.919zm0 2.892h1.471c.68 0 1.222-.361 1.222-1.076 0-.619-.43-1.075-1.187-1.075h-1.506v2.151zM106.479 15.203h.851v5.447h2.892v.766h-3.743v-6.213M114.331 15.874c.645-.697 1.497-.835 2.074-.835 1.721 0 2.805 1.102 2.805 3.21 0 1.653-.662 3.314-2.874 3.314-2.117 0-2.805-1.507-2.805-3.21 0-.706.12-1.747.8-2.479zm.654 4.389c.353.439.886.568 1.377.568.507 0 1.015-.137 1.377-.568.507-.62.559-1.601.559-2.023 0-1.411-.465-2.478-1.885-2.478-1.575 0-1.979 1.265-1.979 2.539 0 .68.121 1.429.551 1.962zM123.604 15.203l1.678 2.392 1.678-2.392h1.041l-2.212 2.977 2.324 3.236h-1.084l-1.85-2.668-1.894 2.668h-1.041l2.41-3.253-2.152-2.96h1.102M5.25 0H.687A.686.686 0 0 0 0 .685v4.563c0 .38.308.687.687.687H5.25a.686.686 0 0 0 .685-.687V.685A.685.685 0 0 0 5.25 0M13.446 0H8.883a.686.686 0 0 0-.686.685v4.563c0 .38.307.687.686.687h4.563a.687.687 0 0 0 .686-.687V.685A.686.686 0 0 0 13.446 0M21.642 0h-4.563a.686.686 0 0 0-.686.685v4.563c0 .38.307.687.686.687h4.563a.686.686 0 0 0 .686-.687V.685A.686.686 0 0 0 21.642 0M5.25 8.124H.687A.687.687 0 0 0 0 8.811v4.563c0 .378.308.684.687.684H5.25a.685.685 0 0 0 .685-.684V8.811a.686.686 0 0 0-.685-.687M21.642 8.124h-4.563a.686.686 0 0 0-.686.687v4.563c0 .378.307.684.686.684h4.563a.685.685 0 0 0 .686-.684V8.811a.686.686 0 0 0-.686-.687M5.25 16.248H.687a.687.687 0 0 0-.687.686v4.563c0 .379.308.686.687.686H5.25a.686.686 0 0 0 .685-.686v-4.563a.686.686 0 0 0-.685-.686M13.446 16.248H8.883a.686.686 0 0 0-.686.686v4.563c0 .379.307.686.686.686h4.563a.686.686 0 0 0 .686-.686v-4.563a.686.686 0 0 0-.686-.686M24.25 16.249h-6.83c-.568 0-1.027.46-1.027 1.028v6.828c0 .568.459 1.027 1.027 1.027h6.83c.567 0 1.026-.459 1.026-1.027v-6.828c0-.568-.459-1.028-1.026-1.028"/></g></svg>