<svg width="226" height="49" viewBox="0 0 226 49" xmlns="http://www.w3.org/2000/svg"><title>logo-qmunicate</title><g fill="none" fill-rule="evenodd"><path d="M47.696 7.709a10.195 10.195 0 0 0-6.093-6.093c-2.594-.82-5.003-.82-9.822-.82h-14.53c-4.819 0-7.228 0-9.822.82a10.195 10.195 0 0 0-6.093 6.093c-.82 2.594-.82 5.003-.82 9.822v14.53c0 4.819 0 7.228.82 9.822a10.197 10.197 0 0 0 6.093 6.093c2.594.82 5.003.82 9.822.82h14.53c4.819 0 7.228 0 9.822-.82a10.197 10.197 0 0 0 6.093-6.093c.82-2.594.82-5.003.82-9.822v-14.53c0-4.819 0-7.228-.82-9.822zM37.158 43.773l-9.249-6.695h-12.16a3.959 3.959 0 0 1-3.954-3.954V15.671a3.96 3.96 0 0 1 3.954-3.956h17.458a3.957 3.957 0 0 1 3.951 3.956v28.102z" fill="#00BF28"/><path d="M77.279 30.447c-1.18.941-2.681 1.501-4.421 1.501-4.261 0-7.122-3.341-7.122-7.242 0-3.861 2.901-7.242 7.162-7.242s7.121 3.341 7.121 7.242c0 1.76-.6 3.421-1.68 4.701l1.86 1.54-1.08 1.18-1.84-1.68zm-1.16-1.02l-2.601-2.221 1.06-1.18 2.581 2.341c.76-.98 1.22-2.24 1.22-3.661 0-3.181-2.32-5.781-5.521-5.781s-5.482 2.56-5.482 5.781c0 3.181 2.321 5.781 5.522 5.781 1.24 0 2.36-.4 3.221-1.06zm9.871-5.441h5.561v1.62H85.99v-1.62zm12.042-6.192h1.6l5.101 7.642 5.101-7.642h1.601v14.003h-1.581V20.455l-5.101 7.501h-.079l-5.102-7.481v11.322h-1.54V17.794zm20.36 8.032v-8.142h1.58v8.042c0 3.021 1.6 4.721 4.281 4.721 2.58 0 4.221-1.561 4.221-4.621v-8.142h1.58v8.022c0 4.081-2.34 6.201-5.841 6.201-3.461 0-5.821-2.12-5.821-6.081zm18.607-8.032h1.481l8.822 11.223V17.794h1.54v14.003h-1.261l-9.041-11.482v11.482h-1.541V17.794zm19.011 0h1.58v14.003h-1.58V17.794zm8.043 7.002c0-3.961 2.961-7.242 7.082-7.242 2.54 0 4.021.941 5.421 2.261l-1.04 1.12c-1.181-1.12-2.501-1.92-4.401-1.92-3.101 0-5.422 2.52-5.422 5.781 0 3.241 2.341 5.781 5.422 5.781 1.92 0 3.18-.74 4.521-2.02l1.04 1.1c-1.461 1.48-3.061 2.381-5.601 2.381-4.041 0-7.022-3.181-7.022-7.242zm23.667-7.052h1.48l6.382 14.103h-1.701l-1.64-3.7h-7.621l-1.661 3.7h-1.62l6.381-14.103zm3.901 8.982l-3.181-7.141-3.2 7.141h6.381zm11.437-7.471h-4.702v-1.461h11.003v1.461h-4.701v12.542h-1.6V19.255zm12.061-1.461h10.122v1.441h-8.542v4.781h7.642v1.44h-7.642v4.901h8.642v1.44h-10.222V17.794z" fill="#666"/></g></svg>