<svg width="18" height="18" viewBox="0 0 18 18" xmlns="http://www.w3.org/2000/svg"><title>nature_active</title><path d="M17.43 6.543c-.898-2.727-2.839-2.223-5.189-1.47a2.963 2.963 0 0 0-.306.116 2.96 2.96 0 0 0 .022-.353c0-2.437-.115-4.413-3.022-4.413-2.908 0-3.022 1.976-3.022 4.413 0 .108.007.216.018.322a3.118 3.118 0 0 0-.334-.129C3.247 4.276 1.306 3.773.408 6.5c-.899 2.726.971 3.444 3.322 4.197.104.033.21.061.316.083-.08.086-.157.177-.227.273-1.453 1.972-2.538 3.636-.186 5.321 2.352 1.686 3.622.153 5.074-1.818a3.17 3.17 0 0 0 .179-.271c.058.102.122.202.193.298 1.452 1.971 2.722 3.503 5.074 1.818 2.353-1.685 1.267-3.349-.185-5.321a3.135 3.135 0 0 0-.207-.251c.117-.023.233-.052.347-.089 2.35-.753 4.221-1.47 3.322-4.197zm-8.511 5.053c-1.401 0-2.537-1.12-2.537-2.502 0-1.381 1.136-2.501 2.537-2.501s2.537 1.12 2.537 2.501c0 1.382-1.136 2.502-2.537 2.502z" fill="#FFF" fill-rule="evenodd"/></svg>