<svg width="18" height="18" viewBox="0 0 18 18" xmlns="http://www.w3.org/2000/svg"><title>nature</title><path d="M17.435 6.543c-.899-2.727-2.839-2.223-5.189-1.47a2.878 2.878 0 0 0-.306.116 2.96 2.96 0 0 0 .021-.353c0-2.437-.114-4.413-3.021-4.413-2.908 0-3.022 1.976-3.022 4.413 0 .108.006.216.018.322a3.202 3.202 0 0 0-.334-.129C3.252 4.276 1.311 3.773.413 6.5c-.899 2.726.971 3.444 3.321 4.197.105.033.21.061.317.083a2.997 2.997 0 0 0-.228.273c-1.452 1.972-2.537 3.636-.185 5.321 2.352 1.686 3.622.153 5.074-1.818.065-.088.124-.178.178-.271.059.102.123.202.194.298 1.452 1.971 2.722 3.503 5.074 1.818s1.267-3.349-.185-5.321a3.135 3.135 0 0 0-.207-.251c.117-.023.233-.052.347-.089 2.35-.753 4.22-1.47 3.322-4.197zm-8.511 5.053c-1.401 0-2.537-1.12-2.537-2.502 0-1.381 1.136-2.501 2.537-2.501s2.537 1.12 2.537 2.501c0 1.382-1.136 2.502-2.537 2.502z" fill="#999" fill-rule="evenodd"/></svg>