<svg width="17" height="17" viewBox="0 0 17 17" xmlns="http://www.w3.org/2000/svg"><title>objects</title><path d="M12.944 7.044C10.725 2.338 9.572.551 5.947.624 4.656.651 4.966-.297 3.982.062c-.984.36-.139.887-1.146 1.7C.012 4.047.272 6.161 1.582 11.199c.552 2.122-1.33 2.226-.585 4.283.543 1.5 4.551 2.128 8.781.581 4.229-1.547 6.898-4.617 6.355-6.117-.745-2.057-2.254-.921-3.189-2.902zm-3.625 7.752c-3.777 1.381-6.882.568-7.013.207-.226-.623 1.22-2.7 5.538-4.28 4.318-1.579 6.728-.994 6.979-.298.15.411-1.727 2.989-5.504 4.371zm-1.214-3.352c-1.975.722-3.347 1.549-4.235 2.292.625.56 1.796.697 2.963.27 1.486-.544 2.399-1.791 2.038-2.786-.004-.013-.011-.023-.015-.035-.244.079-.494.165-.751.259z" fill="#999" fill-rule="evenodd"/></svg>