<svg width="17" height="17" viewBox="0 0 17 17" xmlns="http://www.w3.org/2000/svg"><title>objects_active</title><path d="M12.939 7.044C10.72 2.338 9.568.551 5.943.624 4.651.651 4.961-.297 3.977.062c-.983.36-.139.887-1.146 1.7C.007 4.047.267 6.161 1.577 11.199c.552 2.122-1.33 2.226-.585 4.283.543 1.5 4.552 2.128 8.781.581 4.229-1.547 6.899-4.617 6.355-6.117-.745-2.057-2.254-.921-3.189-2.902zm-3.625 7.752c-3.777 1.381-6.881.568-7.012.207-.227-.623 1.219-2.7 5.537-4.28 4.318-1.579 6.728-.994 6.98-.298.149.411-1.728 2.989-5.505 4.371zM8.1 11.444c-1.975.722-3.347 1.549-4.235 2.292.625.56 1.796.697 2.964.27 1.486-.544 2.398-1.791 2.037-2.786-.004-.013-.011-.023-.015-.035-.244.079-.494.165-.751.259z" fill="#FFF" fill-rule="evenodd"/></svg>