<svg width="23" height="17" viewBox="0 0 23 17" xmlns="http://www.w3.org/2000/svg"><title>places</title><path d="M20.765 8.283a4.72 4.72 0 0 0-2.6-1.341v-1.49a5.3 5.3 0 0 0-1.558-3.77A5.28 5.28 0 0 0 12.845.12h-2.707a5.178 5.178 0 0 0-3.692 1.533 5.204 5.204 0 0 0-1.53 3.7v1.573c-.976.138-1.93.58-2.676 1.328a4.713 4.713 0 0 0-1.399 3.32v1.585a.719.719 0 0 0 .716.717h1.79v1.508c0 .368.14.735.42 1.015.279.28.646.421 1.012.421h.538c.366 0 .733-.141 1.012-.421.28-.28.42-.647.42-1.015v-1.508h9.489v1.508c0 .368.14.735.42 1.015.279.28.646.421 1.012.421h.538c.366 0 .733-.141 1.012-.421.28-.28.42-.647.42-1.015v-1.508h1.79a.716.716 0 0 0 .716-.717v-1.487c0-1.226-.447-2.453-1.381-3.389zM5.138 12.082a1.614 1.614 0 0 1 0-3.229c.89 0 1.611.723 1.611 1.614 0 .892-.721 1.615-1.611 1.615zm.853-5.203V5.353c0-1.11.431-2.154 1.214-2.939a4.117 4.117 0 0 1 2.933-1.217h2.707c1.134 0 2.2.442 3.003 1.246a4.23 4.23 0 0 1 1.243 3.009v1.427h-11.1zm11.858 5.203c-.89 0-1.611-.723-1.611-1.615a1.613 1.613 0 1 1 3.223 0c0 .892-.722 1.615-1.612 1.615z" fill="#999" fill-rule="evenodd"/></svg>