<svg width="23" height="17" viewBox="0 0 23 17" xmlns="http://www.w3.org/2000/svg"><title>places_active</title><path d="M20.76 8.283a4.718 4.718 0 0 0-2.599-1.341v-1.49a5.301 5.301 0 0 0-1.559-3.77A5.28 5.28 0 0 0 12.84.12h-2.707a5.18 5.18 0 0 0-3.692 1.533 5.203 5.203 0 0 0-1.529 3.7v1.573a4.706 4.706 0 0 0-2.677 1.328 4.717 4.717 0 0 0-1.399 3.32v1.585a.716.716 0 0 0 .716.717h1.79v1.508c0 .368.14.735.42 1.015.28.28.646.421 1.013.421h.537a1.43 1.43 0 0 0 1.432-1.436v-1.508h9.489v1.508c0 .368.14.735.42 1.015.28.28.646.421 1.013.421h.537a1.43 1.43 0 0 0 1.432-1.436v-1.508h1.79a.714.714 0 0 0 .717-.717v-1.487a4.764 4.764 0 0 0-1.382-3.389zM5.133 12.082a1.614 1.614 0 0 1 0-3.229c.89 0 1.611.723 1.611 1.614 0 .892-.721 1.615-1.611 1.615zm.853-5.203V5.353c0-1.11.432-2.154 1.215-2.939a4.115 4.115 0 0 1 2.932-1.217h2.707c1.134 0 2.201.442 3.003 1.246a4.23 4.23 0 0 1 1.243 3.009v1.427h-11.1zm11.859 5.203a1.614 1.614 0 0 1 0-3.229c.89 0 1.611.723 1.611 1.614 0 .892-.721 1.615-1.611 1.615z" fill="#FFF" fill-rule="evenodd"/></svg>