<svg width="20" height="20" viewBox="0 0 20 20" xmlns="http://www.w3.org/2000/svg"><title>srickers-q</title><g fill="none" fill-rule="evenodd"><path d="M19.924 15.475a3.677 3.677 0 0 1-3.677 3.677H4.602a3.677 3.677 0 0 1-3.677-3.677V3.83A3.677 3.677 0 0 1 4.602.152h11.645a3.677 3.677 0 0 1 3.677 3.678v11.645" fill="#91BE1F"/><path d="M18.896 6.94a3.64 3.64 0 1 1-7.28 0 3.64 3.64 0 0 1 7.28 0" fill="#FFF"/><path d="M17.662 6.94a2.406 2.406 0 1 1-4.811 0 2.406 2.406 0 0 1 4.811 0" fill="#231F1F"/><path d="M16.602 6.416a.921.921 0 1 1-1.843 0 .921.921 0 0 1 1.843 0M9.553 6.94a3.64 3.64 0 1 1-7.279 0 3.64 3.64 0 0 1 7.279 0" fill="#FFF"/><path d="M8.32 6.94a2.407 2.407 0 1 1-4.813-.001 2.407 2.407 0 0 1 4.813.001" fill="#231F1F"/><path d="M7.259 6.416a.921.921 0 1 1-1.842 0 .921.921 0 0 1 1.842 0" fill="#FFF"/><path d="M10.425 17.518a4.407 4.407 0 0 0 4.407-4.408c-2.762 1.244-5.689 1.329-8.815 0a4.407 4.407 0 0 0 4.408 4.408" fill="#066633"/></g></svg>