<svg width="23" height="14" viewBox="0 0 23 14" xmlns="http://www.w3.org/2000/svg"><title>symbols</title><path d="M21.034.962H1.666C.936.962.345 1.526.345 2.22v10.482c0 .694.591 1.258 1.321 1.258h19.368c.729 0 1.32-.564 1.32-1.258V2.22c0-.694-.591-1.258-1.32-1.258zm-17.511 9.06h1.753v1.613H3.523v-1.613zM5.317 5.52l-.475 3.837h-.874L3.482 5.52V3.434h1.835V5.52zm3.705 4.502h1.752v1.613H9.022v-1.613zm3.424-3.087c-.148.2-.433.457-.854.77l-.415.307a1.207 1.207 0 0 0-.45.586c-.047.142-.072.362-.076.659H9.062c.024-.629.086-1.063.188-1.303.101-.241.362-.517.783-.83l.426-.318c.141-.1.254-.21.339-.329a1.09 1.09 0 0 0 .234-.676c0-.283-.087-.541-.26-.773-.173-.233-.49-.349-.95-.349-.453 0-.773.143-.963.43a1.605 1.605 0 0 0-.283.893H6.882c.047-1.061.436-1.813 1.166-2.256.462-.282 1.028-.424 1.7-.424.883 0 1.617.201 2.202.603.584.402.876.997.876 1.787 0 .483-.127.891-.38 1.223zm7.445-.101h-1.192l-.46 1.636h1.193l-.263.933h-1.193l-.628 2.233h-1.165l.628-2.233h-.967l-.634 2.233h-1.165l.633-2.233h-1.184l.262-.933h1.187l.464-1.636h-1.191l.262-.933h1.193l.64-2.255h1.166l-.64 2.255h.96l.635-2.255h1.165l-.635 2.255h1.192l-.263.933zM16.109 8.47h.965l.46-1.636h-.961l-.464 1.636z" fill="#999" fill-rule="evenodd"/></svg>