<svg width="23" height="14" viewBox="0 0 23 14" xmlns="http://www.w3.org/2000/svg"><title>symbols_active</title><path d="M21.029.962H1.661C.932.962.34 1.526.34 2.22v10.482c0 .694.592 1.258 1.321 1.258h19.368c.729 0 1.321-.564 1.321-1.258V2.22c0-.694-.592-1.258-1.321-1.258zm-17.511 9.06h1.753v1.613H3.518v-1.613zM5.312 5.52l-.475 3.837h-.873L3.477 5.52V3.434h1.835V5.52zm3.705 4.502h1.752v1.613H9.017v-1.613zm3.424-3.087c-.148.2-.432.457-.853.77l-.415.307a1.21 1.21 0 0 0-.451.586c-.046.142-.072.362-.076.659H9.058c.023-.629.085-1.063.187-1.303.101-.241.362-.517.783-.83l.427-.318c.14-.1.253-.21.339-.329.155-.205.233-.43.233-.676 0-.283-.086-.541-.26-.773-.173-.233-.49-.349-.95-.349-.452 0-.773.143-.962.43a1.598 1.598 0 0 0-.284.893H6.877c.047-1.061.436-1.813 1.167-2.256.461-.282 1.028-.424 1.699-.424.884 0 1.617.201 2.202.603.584.402.876.997.876 1.787 0 .483-.126.891-.38 1.223zm7.445-.101h-1.191l-.461 1.636h1.193l-.262.933h-1.193l-.629 2.233h-1.165l.628-2.233h-.967l-.633 2.233H14.04l.633-2.233h-1.184l.262-.933h1.187l.464-1.636h-1.191l.262-.933h1.194l.64-2.255h1.165l-.639 2.255h.959l.635-2.255h1.165l-.635 2.255h1.192l-.263.933zM16.104 8.47h.965l.46-1.636h-.961l-.464 1.636z" fill="#FFF" fill-rule="evenodd"/></svg>